<?xml version="1.0" encoding="UTF-8"?>
<svg id="Layer_2" data-name="Layer 2" xmlns="http://www.w3.org/2000/svg" xmlns:xlink="http://www.w3.org/1999/xlink" viewBox="0 0 746.81 414.25">
  <defs>
    <style>
      .cls-1 {
        fill: #b3b3b3;
      }

      .cls-1, .cls-2, .cls-3, .cls-4, .cls-5, .cls-6, .cls-7, .cls-8, .cls-9, .cls-10, .cls-11, .cls-12, .cls-13, .cls-14, .cls-15, .cls-16, .cls-17, .cls-18 {
        stroke-width: 0px;
      }

      .cls-2 {
        fill: url(#linear-gradient);
      }

      .cls-3 {
        fill: #c69c6d;
      }

      .cls-4 {
        fill: #39b24a;
      }

      .cls-5 {
        fill: #a67c52;
      }

      .cls-6 {
        fill: #39b54a;
      }

      .cls-7 {
        fill: #999;
      }

      .cls-8 {
        fill: #8c6239;
      }

      .cls-9 {
        fill: #abe1f4;
      }

      .cls-10 {
        fill: #c8c8c8;
      }

      .cls-11 {
        fill: url(#linear-gradient-4);
      }

      .cls-12 {
        fill: url(#linear-gradient-2);
      }

      .cls-13 {
        fill: url(#linear-gradient-3);
      }

      .cls-14 {
        fill: url(#linear-gradient-8);
      }

      .cls-15 {
        fill: url(#linear-gradient-7);
      }

      .cls-16 {
        fill: url(#linear-gradient-5);
      }

      .cls-17 {
        fill: url(#linear-gradient-6);
      }

      .cls-18 {
        fill: #92d5e0;
      }
    </style>
    <linearGradient id="linear-gradient" x1="0" y1="227.64" x2="746.81" y2="227.64" gradientUnits="userSpaceOnUse">
      <stop offset="0" stop-color="#fdeab9" stop-opacity=".5"/>
      <stop offset=".4" stop-color="rgba(253, 231, 176, .65)" stop-opacity=".65"/>
      <stop offset=".78" stop-color="rgba(253, 229, 169, .76)" stop-opacity=".76"/>
      <stop offset="1" stop-color="#fde5a7" stop-opacity=".8"/>
    </linearGradient>
    <linearGradient id="linear-gradient-2" x1="-7420.77" y1="-8979.14" x2="-7420.77" y2="-8997.14" gradientTransform="translate(7782.1 9204.66)" gradientUnits="userSpaceOnUse">
      <stop offset="0" stop-color="#92d5e0"/>
      <stop offset=".09" stop-color="rgba(146, 213, 224, .95)" stop-opacity=".95"/>
      <stop offset=".26" stop-color="rgba(146, 213, 224, .83)" stop-opacity=".83"/>
      <stop offset=".47" stop-color="rgba(146, 213, 224, .62)" stop-opacity=".62"/>
      <stop offset=".73" stop-color="rgba(146, 213, 224, .33)" stop-opacity=".33"/>
      <stop offset="1" stop-color="#92d5e0" stop-opacity="0"/>
    </linearGradient>
    <linearGradient id="linear-gradient-3" x1="-7420.77" y1="-8979.14" x2="-7420.77" y2="-8997.14" gradientTransform="translate(7616.6 9206.64)" xlink:href="#linear-gradient-2"/>
    <linearGradient id="linear-gradient-4" x1="-7420.77" y1="-8979.14" x2="-7420.77" y2="-8997.14" gradientTransform="translate(7948.6 9206.64)" xlink:href="#linear-gradient-2"/>
    <linearGradient id="linear-gradient-5" x1="279.49" y1="105.64" x2="279.49" y2="87.64" gradientTransform="matrix(1,0,0,1,0,0)" xlink:href="#linear-gradient-2"/>
    <linearGradient id="linear-gradient-6" x1="280.49" y1="347.64" x2="280.49" y2="329.64" gradientTransform="matrix(1,0,0,1,0,0)" xlink:href="#linear-gradient-2"/>
    <linearGradient id="linear-gradient-7" x1="-7428.77" y1="-8980.14" x2="-7428.77" y2="-8998.14" gradientTransform="translate(7871.57 9085.8)" xlink:href="#linear-gradient-2"/>
    <linearGradient id="linear-gradient-8" x1="-7428.77" y1="-8976.14" x2="-7428.77" y2="-8994.14" gradientTransform="translate(7872.18 9323.97)" xlink:href="#linear-gradient-2"/>
  </defs>
  <g id="Layer_2-2" data-name="Layer 2">
    <path class="cls-2" d="M206.96,66.76C52.97,121.11-56.27,233.13,30.97,277.57c63.63,32.41,62.12,67.05,116.81,93.06,117.09,55.68,388.24,52.34,466.51,21.87,124.76-48.57,118.26-124.47,99.87-167.1-21.98-50.97,51.09-66.81,28.13-97.71-22.59-30.4-75.39-16.5-132.69-31.29-78.9-20.36-221.05-93.73-402.64-29.64Z"/>
    <path class="cls-5" d="M691.16,95.65c.05,1.3.1,2.6.15,3.9l.02.56c.03.78.67,1.54,1.5,1.5.79-.04,1.53-.66,1.5-1.5-.05-1.3-.1-2.6-.15-3.9l-.02-.56c-.03-.78-.67-1.54-1.5-1.5-.79.04-1.53.66-1.5,1.5h0Z"/>
    <path class="cls-5" d="M619.96,45.34c.69,1.11,1.37,2.22,2.06,3.33.1.16.19.32.29.47.2.33.52.59.9.69s.84.05,1.16-.15c.67-.43.98-1.34.54-2.05-.69-1.11-1.37-2.22-2.06-3.33-.1-.16-.19-.32-.29-.47-.2-.33-.52-.59-.9-.69s-.84-.05-1.16.15c-.67.43-.98,1.34-.54,2.05h0Z"/>
    <path class="cls-5" d="M616.45,2.25c.69,1.11,1.37,2.22,2.06,3.33.1.16.19.32.29.47.2.33.52.59.9.69s.84.05,1.16-.15c.67-.43.98-1.34.54-2.05-.69-1.11-1.37-2.22-2.06-3.33-.1-.16-.19-.32-.29-.47-.2-.33-.52-.59-.9-.69s-.84-.05-1.16.15c-.67.43-.98,1.34-.54,2.05h0Z"/>
    <path class="cls-18" d="M634.05,219.3c0,87.95-122,159.25-272.5,159.25-150.5,0-272.5-71.3-272.5-159.25S211.05,60.06,361.55,60.06s272.5,71.3,272.5,159.25Z"/>
    <path class="cls-9" d="M618.84,214.73c0,85.5-118.6,154.8-264.9,154.8-146.3,0-264.9-69.31-264.9-154.8S207.64,59.93,353.94,59.93s264.9,69.31,264.9,154.8Z"/>
    <path class="cls-3" d="M657.93,162.93h.58c5.28-36.54,0-77.76-14.13-111.54-3.57-8.36-7.75-16.49-12.66-24.13,19.84,42.24,27.43,89.24,26.22,135.67Z"/>
    <path class="cls-3" d="M681.44,180.94c4.29-9.96,7.01-20.55,9.16-31.16,2.12-11.18,3.42-22.53,3.54-33.92-3.17,21.61-6.88,44.07-12.92,65.08h.21Z"/>
    <polygon class="cls-1" points="133.85 340.78 158.66 357.43 194.55 357.43 203.76 354.8 192.07 320.88 185.05 317.93 178.05 308.93 155.05 309.93 133.85 340.78"/>
    <polygon class="cls-1" points="94.08 318.9 108 325.49 130.77 322.2 120.37 306.93 106.35 306.93 94.08 318.9"/>
    <polygon class="cls-10" points="110.05 312.93 106.35 306.93 120.37 306.93 121.05 309.93 110.05 312.93"/>
    <polygon class="cls-10" points="158.05 314.93 158.66 357.43 133.85 340.78 146.05 322.93 158.05 314.93"/>
    <polygon class="cls-1" points="120.32 331.14 114.69 337.27 119.2 340.98 138.1 343.63 142.82 327.78 120.32 331.14"/>
    <line class="cls-7" x1="114.69" y1="337.27" x2="120.32" y2="331.14"/>
    <polygon class="cls-10" points="127.65 334.21 120.32 331.14 142.82 327.78 127.65 334.21"/>
    <path class="cls-3" d="M658.15,162.93c.96-24.59-3.72-49.41-12.63-72.31l-1.26-3.25s-1.45-3.17-1.46-3.17c-2.15-4.99-5.27-10.76-7.99-15.47-1.82-2.81-3.88-5.96-5.75-8.7,1.97,4.11,4.36,8.22,6.15,12.41,13.21,28.34,20.15,59.39,22.6,90.5h.33Z"/>
    <path class="cls-4" d="M659.95,162.93c11.83-23.65,20.64-63.55,14.6-87.5-4.8,14.87-9.06,29.89-12.11,45.21-2.72,14-4.96,27.93-4.95,42.29h2.47Z"/>
    <path class="cls-4" d="M659.63,162.93c3.29-9.13,4.6-18.84,5.17-28.49.46-11.09-.21-22.26-3.26-33.01-1.69,10.85-2.12,21.8-2.73,32.72-.46,9.64-.87,19.11-.82,28.78h1.64Z"/>
    <path class="cls-4" d="M651.92,162.93h2.26c1.05-17.46-10.34-37.83-24.03-47.16,0,0-.4.3-.4.3,2.75,4.01,5.5,8.02,7.97,12.2,6.11,10.42,11.3,21.6,13.93,33.43.09.41.18.82.26,1.23Z"/>
    <path class="cls-6" d="M681.79,180.94c7.97-5.06,15.44-17.08,11.26-26.01-2.91,9.54-8.96,16.83-12.61,26.01h1.35Z"/>
    <path class="cls-8" d="M636.73,24.4c-3.33-6.33-6.67-12.67-10-19-3.6-6.84-13.96-.78-10.36,6.06,3.33,6.33,6.67,12.67,10,19,3.6,6.84,13.96.78,10.36-6.06h0Z"/>
    <path class="cls-8" d="M635.86,60.91c-2.46-4.44-4.91-8.88-7.37-13.31-3.12-5.63-11.76-.59-8.63,5.05,2.46,4.44,4.91,8.88,7.37,13.31,3.12,5.63,11.76.59,8.63-5.05h0Z"/>
    <path class="cls-8" d="M688.12,101.58c.15,4.33.3,8.66.45,12.99.22,6.42,10.22,6.45,10,0-.15-4.33-.3-8.66-.45-12.99-.22-6.42-10.22-6.45-10,0h0Z"/>
    <ellipse class="cls-12" cx="361.33" cy="216.52" rx="58.86" ry="9"/>
    <g>
      <ellipse class="cls-13" cx="195.83" cy="218.5" rx="58.86" ry="9"/>
      <ellipse class="cls-11" cx="527.83" cy="218.5" rx="58.86" ry="9"/>
    </g>
    <ellipse class="cls-16" cx="279.49" cy="96.64" rx="58.86" ry="9"/>
    <ellipse class="cls-17" cx="280.49" cy="338.64" rx="58.86" ry="9"/>
    <ellipse class="cls-15" cx="442.8" cy="96.66" rx="58.86" ry="9"/>
    <path class="cls-14" d="M502.27,338.83c0,4.97-26.35,9-58.86,9-32.51,0-58.86-4.03-58.86-9s26.35-9,58.86-9,58.86,4.03,58.86,9Z"/>
  </g>
</svg>