<?xml version="1.0" encoding="UTF-8"?>
<svg id="Layer_2" data-name="Layer 2" xmlns="http://www.w3.org/2000/svg" viewBox="0 0 235.81 222.86">
  <defs>
    <style>
      .cls-1 {
        fill: none;
        stroke: #000;
        stroke-miterlimit: 10;
        stroke-width: .5px;
      }
    </style>
  </defs>
  <g id="Layer_2-2" data-name="Layer 2">
    <path class="cls-1" d="M29.2,73.25s-12.33,31.47-13,56c-.7,25.52,5.39,39.66,20,57,16,19,46,36,91.86,36.36.77,0,1.53,0,2.29-.01,1.94-.03,3.87-.11,5.78-.24,11.97-.84,23.48-3.74,34.15-8.32,9.13-3.92,17.66-9.07,25.33-15.23,26.31-21.11,42.67-54.04,39.58-89.55-2-23-11-41-11-41h.01s-14,12.99-14,12.99c0,0-38-6-60-6-18.03,0-34,4-34,4,0,0,6-11,6-29C122.2,24.06,102.2.25,69.2.25,47.2.25,27.2,17.25,28.61,37.32c-.4-.08-.82-.12-1.24-.12-3.66,0-6.63,2.97-6.63,6.63,0,.89.18,1.73.49,2.51L2.89,56.02c-4.35,2.3-2.87,7.16,1.17,9.96,6.15,4.26,25.15,7.26,25.15,7.26"/>
  </g>
</svg>