<?xml version="1.0" encoding="UTF-8"?>
<svg id="Layer_2" data-name="Layer 2" xmlns="http://www.w3.org/2000/svg" xmlns:xlink="http://www.w3.org/1999/xlink" viewBox="0 0 235.33 222.36">
  <defs>
    <style>
      .cls-1 {
        fill: url(#linear-gradient);
      }

      .cls-1, .cls-2, .cls-3, .cls-4 {
        stroke-width: 0px;
      }

      .cls-2 {
        fill: url(#linear-gradient-2);
        opacity: .58;
      }

      .cls-3 {
        fill: #ffa607;
      }

      .cls-4 {
        fill: #000;
      }
    </style>
    <linearGradient id="linear-gradient" x1="15.9" y1="111.18" x2="235.33" y2="111.18" gradientUnits="userSpaceOnUse">
      <stop offset="0" stop-color="#ffc730" stop-opacity=".6"/>
      <stop offset=".41" stop-color="rgba(255, 199, 48, .71)" stop-opacity=".71"/>
      <stop offset="1" stop-color="#ffc730" stop-opacity=".9"/>
    </linearGradient>
    <linearGradient id="linear-gradient-2" x1="77.65" y1="137.21" x2="196.65" y2="137.21" gradientUnits="userSpaceOnUse">
      <stop offset="0" stop-color="#ffc730" stop-opacity=".7"/>
      <stop offset=".06" stop-color="rgba(255, 203, 65, .73)" stop-opacity=".73"/>
      <stop offset=".32" stop-color="rgba(255, 221, 131, .82)" stop-opacity=".82"/>
      <stop offset=".55" stop-color="rgba(255, 236, 184, .9)" stop-opacity=".9"/>
      <stop offset=".75" stop-color="rgba(255, 246, 222, .95)" stop-opacity=".95"/>
      <stop offset=".91" stop-color="rgba(255, 252, 246, .99)" stop-opacity=".99"/>
      <stop offset="1" stop-color="#fff"/>
    </linearGradient>
  </defs>
  <g id="Layer_2-2" data-name="Layer 2">
    <g>
      <path class="cls-1" d="M223.95,68l-14,13s-38-6-60-6c-18.03,0-34,4-34,4,0,0,6-11,6-29C121.95,23.81,101.95,0,68.95,0,46.95,0,26.95,17,28.36,37.07c0,0,12.35,19.91,10.59,26.93-1,4-10,9-10,9,0,0-12.33,31.47-13,56-.7,25.52,5.39,39.66,20,57,16,19,46,36,91.86,36.36.77,0,1.53,0,2.29-.01,1.94-.03,3.87-.11,5.78-.24,11.97-.84,23.48-3.74,34.15-8.32,9.13-3.92,17.66-9.07,25.33-15.23,26.31-21.11,42.67-54.04,39.58-89.55-2-23-11-41-11-41Z"/>
      <path class="cls-4" d="M57.64,34.85c0,3.78-3.06,6.85-6.85,6.85s-6.85-3.06-6.85-6.85h13.69Z"/>
      <path class="cls-3" d="M28.36,37.07c-.4-.08-.82-.12-1.24-.12-3.66,0-6.63,2.97-6.63,6.63,0,.89.18,1.73.49,2.51L2.64,55.77c-4.35,2.3-2.87,7.16,1.17,9.96,6.15,4.26,25.15,7.26,25.15,7.26,0,0,9-5,10-9,1.75-7.02-10.59-26.93-10.59-26.93Z"/>
    </g>
    <path class="cls-2" d="M196.65,105.91c0,23.47-12.67,76-50.5,76s-68.5-38.53-68.5-62,30.67-23,68.5-23,50.5-14.47,50.5,9Z"/>
  </g>
</svg>