<?xml version="1.0" encoding="UTF-8"?>
<svg id="Layer_2" data-name="Layer 2" xmlns="http://www.w3.org/2000/svg" xmlns:xlink="http://www.w3.org/1999/xlink" viewBox="0 0 219.43 222.36">
  <defs>
    <style>
      .cls-1 {
        fill: url(#duck-gradient);
      }

      .cls-1, .cls-2, .cls-3, .cls-4 {
        stroke-width: 0px;
      }

      .cls-2 {
        fill: #ffa607;
      }

      .cls-3 {
        fill: #000;
      }

      .cls-4 {
        fill: #ffe876;
      }
    </style>
    <linearGradient id="duck-gradient" x1="0" y1="111.18" x2="219.43" y2="111.18" gradientUnits="userSpaceOnUse">
      <stop offset="0" stop-color="#fac02a" stop-opacity="0"/>
      <stop offset=".27" stop-color="rgba(250, 192, 42, .27)" stop-opacity=".27"/>
      <stop offset=".52" stop-color="rgba(250, 192, 42, .5)" stop-opacity=".5"/>
      <stop offset=".73" stop-color="rgba(250, 192, 42, .66)" stop-opacity=".66"/>
      <stop offset=".9" stop-color="rgba(250, 192, 42, .76)" stop-opacity=".76"/>
      <stop offset="1" stop-color="#fac02a" stop-opacity=".8"/>
    </linearGradient>
  </defs>
  <g id="Layer_2-2" data-name="Layer 2">
    <path class="cls-4" d="M208.05,68l-14,13s-38-6-60-6c-18.03,0-34,4-34,4,0,0,6-11,6-29C106.05,23.81,86.05,0,53.05,0,31.05,0,1.42,20.85.42,54.85c-.62,20.99,6.84,35.37,6.2,37.61C3.51,103.29.38,116.98.05,129c-.7,25.52,5.39,39.66,20,57,16,19,46,36,91.86,36.36.77,0,1.53,0,2.29-.01,1.94-.03,3.87-.11,5.78-.24,11.97-.84,23.48-3.74,34.15-8.32,9.13-3.92,17.66-9.07,25.33-15.23,26.31-21.11,42.67-54.04,39.58-89.55-2-23-11-41-11-41Z"/>
    <path class="cls-1" d="M208.05,68l-14,13s-38-6-60-6c-18.03,0-34,4-34,4,0,0,6-11,6-29C106.05,23.81,86.05,0,53.05,0,31.05,0,1.42,20.85.42,54.85c-.62,20.99,6.84,35.37,6.2,37.61C3.51,103.29.38,116.98.05,129c-.7,25.52,5.39,39.66,20,57,16,19,46,36,91.86,36.36.77,0,1.53,0,2.29-.01,1.94-.03,3.87-.11,5.78-.24,11.97-.84,23.48-3.74,34.15-8.32,9.13-3.92,17.66-9.07,25.33-15.23,26.31-21.11,42.67-54.04,39.58-89.55-2-23-11-41-11-41Z"/>
    <path class="cls-2" d="M86.12,59.57l-20.64-9.45-20.64,9.45c-5.02,2.3-3.31,7.16,1.35,9.96,5.2,3.12,14.79,6.1,19.29,6.1,4.73,0,14.09-2.98,19.29-6.1,4.66-2.8,6.36-7.67,1.35-9.96Z"/>
    <path class="cls-3" d="M95.97,45.01c-.97,3.66-4.71,5.84-8.37,4.87s-5.84-4.71-4.87-8.36l13.24,3.49Z"/>
    <path class="cls-3" d="M34.87,44.62c.97,3.66,4.71,5.84,8.37,4.87s5.84-4.71,4.87-8.36l-13.24,3.49Z"/>
  </g>
</svg>