<?xml version="1.0" encoding="UTF-8"?>
<svg id="Layer_2" data-name="Layer 2" xmlns="http://www.w3.org/2000/svg" xmlns:xlink="http://www.w3.org/1999/xlink" viewBox="0 0 235.33 222.36">
  <defs>
    <style>
      .cls-1 {
        fill: #fac02a;
        opacity: .58;
      }

      .cls-1, .cls-2, .cls-3, .cls-4, .cls-5 {
        stroke-width: 0px;
      }

      .cls-2 {
        fill: url(#duck-gradient);
      }

      .cls-3 {
        fill: #ffa607;
      }

      .cls-4 {
        fill: #000;
      }

      .cls-5 {
        fill: #ffe876;
      }
    </style>
    <linearGradient id="duck-gradient" x1="15.9" y1="111.18" x2="235.33" y2="111.18" gradientUnits="userSpaceOnUse">
      <stop offset="0" stop-color="#fac02a" stop-opacity="0"/>
      <stop offset=".27" stop-color="rgba(250, 192, 42, .27)" stop-opacity=".27"/>
      <stop offset=".52" stop-color="rgba(250, 192, 42, .5)" stop-opacity=".5"/>
      <stop offset=".73" stop-color="rgba(250, 192, 42, .66)" stop-opacity=".66"/>
      <stop offset=".9" stop-color="rgba(250, 192, 42, .76)" stop-opacity=".76"/>
      <stop offset="1" stop-color="#fac02a" stop-opacity=".8"/>
    </linearGradient>
  </defs>
  <g id="Layer_2-2" data-name="Layer 2">
    <path class="cls-5" d="M223.95,68l-14,13s-38-6-60-6c-18.03,0-34,4-34,4,0,0,6-11,6-29C121.95,23.81,101.95,0,68.95,0,46.95,0,26.95,17,28.36,37.07c0,0,12.35,19.91,10.59,26.93-1,4-10,9-10,9,0,0-12.33,31.47-13,56-.7,25.52,5.39,39.66,20,57,16,19,46,36,91.86,36.36.77,0,1.53,0,2.29-.01,1.94-.03,3.87-.11,5.78-.24,11.97-.84,23.48-3.74,34.15-8.32,9.13-3.92,17.66-9.07,25.33-15.23,26.31-21.11,42.67-54.04,39.58-89.55-2-23-11-41-11-41Z"/>
    <path class="cls-4" d="M57.64,34.85c0,3.78-3.06,6.85-6.85,6.85s-6.85-3.06-6.85-6.85c0,0,2.7,3,6.85,3,3.86,0,6.85-3,6.85-3Z"/>
    <path class="cls-3" d="M28.36,37.07c-.4-.08-.82-.12-1.24-.12-3.66,0-6.63,2.97-6.63,6.63,0,.89.18,1.73.49,2.51L2.64,55.77c-4.35,2.3-2.87,7.16,1.17,9.96,6.15,4.26,25.15,7.26,25.15,7.26,0,0,9-5,10-9,1.75-7.02-10.59-26.93-10.59-26.93Z"/>
    <path class="cls-1" d="M202.08,77.34c-1.94-7.16-18.51-19.89-55.02-10-36.52,9.88-62.94,29.65-61,36.82,1.94,7.16,31.5-.99,68.02-10.87,36.52-9.88,49.94-8.77,48-15.94Z"/>
    <path class="cls-2" d="M234.95,109c-2-23-11-41-11-41l-14,13s-38-6-60-6c-18.03,0-34,4-34,4,0,0,6-11,6-29C121.95,23.81,101.95,0,68.95,0,46.95,0,26.95,17,28.36,37.07c0,0,12.35,19.91,10.59,26.93-1,4-10,9-10,9,0,0-12.33,31.47-13,56-.7,25.52,5.39,39.66,20,57,16,19,46,36,91.86,36.36.77,0,1.53,0,2.29-.01,1.94-.03,3.87-.11,5.78-.24,11.97-.84,23.48-3.74,34.15-8.32,9.13-3.92,17.66-9.07,25.33-15.23,26.31-21.11,42.67-54.04,39.58-89.55Z"/>
  </g>
</svg>