<?xml version="1.0" encoding="UTF-8"?>
<svg id="Layer_2" data-name="Layer 2" xmlns="http://www.w3.org/2000/svg" viewBox="0 0 397.56 397.2">
  <defs>
    <style>
      .cls-1 {
        fill: #1a1a1a;
        stroke-width: 0px;
      }
    </style>
  </defs>
  <g id="Layer_2-2" data-name="Layer 2">
    <g>
      <path class="cls-1" d="M372.56,198.6c0,95.72-77.96,173.6-173.78,173.6-46.47,0-90.4-18.37-122.89-50.87l30.07-30.07H27.95s0,78.01,0,78.01l30.26-30.26c37.16,37.19,87.41,58.2,140.57,58.2,109.61,0,198.78-89.09,198.78-198.6h-25Z"/>
      <path class="cls-1" d="M198.78,25c46.44,0,90.32,18.47,122.59,50.57l-30.43,30.43h78.01s0-78.01,0-78.01l-29.9,29.9C302.14,21.15,251.92,0,198.78,0,89.17,0,0,89.09,0,198.6h25C25,102.88,102.96,25,198.78,25Z"/>
    </g>
  </g>
</svg>