<?xml version="1.0" encoding="UTF-8"?>
<svg id="Layer_2" data-name="Layer 2" xmlns="http://www.w3.org/2000/svg" viewBox="0 0 397.56 397.2">
  <defs>
    <style>
      .cls-1 {
        fill: #1a1a1a;
        stroke-width: 0px;
      }
    </style>
  </defs>
  <g id="Layer_2-2" data-name="Layer 2">
    <path class="cls-1" d="M363.6,87.55C326.53,32.73,264.92,0,198.78,0,89.17,0,0,89.09,0,198.6h25C25,102.88,102.96,25,198.78,25c57.82,0,111.7,28.62,144.11,76.55,19.41,28.7,29.67,62.26,29.67,97.05,0,95.72-77.96,173.6-173.78,173.6-46.47,0-90.4-18.37-122.89-50.87l30.07-30.07H27.95s0,78.01,0,78.01l30.26-30.26c37.16,37.19,87.41,58.2,140.57,58.2,109.61,0,198.78-89.09,198.78-198.6,0-39.8-11.74-78.2-33.96-111.05Z"/>
  </g>
</svg>